<svg xmlns="http://www.w3.org/2000/svg" style="display:none" aria-hidden="true">
  <!-- Icons from Lucide — https://lucide.dev — ISC license -->
  <!-- One <symbol> per icon, viewBox 0 0 24 24, no inline stroke/fill.
       Stroke-width / linecap / linejoin / fill come from the global
       `.icon` class in style.css and are inherited via <use>. -->

  <symbol id="i-activity" viewBox="0 0 24 24">
    <path d="M22 12h-2.48a2 2 0 0 0-1.93 1.46l-2.35 8.36a.5.5 0 0 1-.96 0L9.24 2.18a.5.5 0 0 0-.96 0l-2.35 8.36A2 2 0 0 1 4 12H2"/>
  </symbol>

  <symbol id="i-server" viewBox="0 0 24 24">
    <rect width="20" height="8" x="2" y="2" rx="2" ry="2"/>
    <rect width="20" height="8" x="2" y="14" rx="2" ry="2"/>
    <line x1="6" x2="6.01" y1="6" y2="6"/>
    <line x1="6" x2="6.01" y1="18" y2="18"/>
  </symbol>

  <symbol id="i-clock" viewBox="0 0 24 24">
    <circle cx="12" cy="12" r="10"/>
    <polyline points="12 6 12 12 16 14"/>
  </symbol>

  <symbol id="i-settings" viewBox="0 0 24 24">
    <path d="M12.22 2h-.44a2 2 0 0 0-2 2v.18a2 2 0 0 1-1 1.73l-.43.25a2 2 0 0 1-2 0l-.15-.08a2 2 0 0 0-2.73.73l-.22.38a2 2 0 0 0 .73 2.73l.15.1a2 2 0 0 1 1 1.72v.51a2 2 0 0 1-1 1.74l-.15.09a2 2 0 0 0-.73 2.73l.22.38a2 2 0 0 0 2.73.73l.15-.08a2 2 0 0 1 2 0l.43.25a2 2 0 0 1 1 1.73V20a2 2 0 0 0 2 2h.44a2 2 0 0 0 2-2v-.18a2 2 0 0 1 1-1.73l.43-.25a2 2 0 0 1 2 0l.15.08a2 2 0 0 0 2.73-.73l.22-.39a2 2 0 0 0-.73-2.73l-.15-.08a2 2 0 0 1-1-1.74v-.5a2 2 0 0 1 1-1.74l.15-.09a2 2 0 0 0 .73-2.73l-.22-.38a2 2 0 0 0-2.73-.73l-.15.08a2 2 0 0 1-2 0l-.43-.25a2 2 0 0 1-1-1.73V4a2 2 0 0 0-2-2z"/>
    <circle cx="12" cy="12" r="3"/>
  </symbol>

  <symbol id="i-log-out" viewBox="0 0 24 24">
    <path d="M9 21H5a2 2 0 0 1-2-2V5a2 2 0 0 1 2-2h4"/>
    <polyline points="16 17 21 12 16 7"/>
    <line x1="21" x2="9" y1="12" y2="12"/>
  </symbol>

  <symbol id="i-plus" viewBox="0 0 24 24">
    <path d="M5 12h14"/>
    <path d="M12 5v14"/>
  </symbol>

  <symbol id="i-pencil" viewBox="0 0 24 24">
    <path d="M21.174 6.812a1 1 0 0 0-3.986-3.987L3.842 16.174a2 2 0 0 0-.5.83l-1.321 4.352a.5.5 0 0 0 .623.622l4.353-1.32a2 2 0 0 0 .83-.497z"/>
    <path d="m15 5 4 4"/>
  </symbol>

  <symbol id="i-trash-2" viewBox="0 0 24 24">
    <path d="M3 6h18"/>
    <path d="M19 6v14a2 2 0 0 1-2 2H7a2 2 0 0 1-2-2V6"/>
    <path d="M8 6V4a2 2 0 0 1 2-2h4a2 2 0 0 1 2 2v2"/>
    <line x1="10" x2="10" y1="11" y2="17"/>
    <line x1="14" x2="14" y1="11" y2="17"/>
  </symbol>

  <symbol id="i-refresh-cw" viewBox="0 0 24 24">
    <path d="M3 12a9 9 0 0 1 9-9 9.75 9.75 0 0 1 6.74 2.74L21 8"/>
    <path d="M21 3v5h-5"/>
    <path d="M21 12a9 9 0 0 1-9 9 9.75 9.75 0 0 1-6.74-2.74L3 16"/>
    <path d="M8 16H3v5"/>
  </symbol>

  <symbol id="i-globe" viewBox="0 0 24 24">
    <circle cx="12" cy="12" r="10"/>
    <path d="M12 2a14.5 14.5 0 0 0 0 20 14.5 14.5 0 0 0 0-20"/>
    <path d="M2 12h20"/>
  </symbol>

  <symbol id="i-x" viewBox="0 0 24 24">
    <path d="M18 6 6 18"/>
    <path d="m6 6 12 12"/>
  </symbol>

  <symbol id="i-chevron-left" viewBox="0 0 24 24">
    <path d="m15 18-6-6 6-6"/>
  </symbol>

  <symbol id="i-chevron-right" viewBox="0 0 24 24">
    <path d="m9 18 6-6-6-6"/>
  </symbol>

  <symbol id="i-check-circle" viewBox="0 0 24 24">
    <circle cx="12" cy="12" r="10"/>
    <path d="m9 12 2 2 4-4"/>
  </symbol>

  <symbol id="i-x-circle" viewBox="0 0 24 24">
    <circle cx="12" cy="12" r="10"/>
    <path d="m15 9-6 6"/>
    <path d="m9 9 6 6"/>
  </symbol>

  <symbol id="i-alert-triangle" viewBox="0 0 24 24">
    <path d="m21.73 18-8-14a2 2 0 0 0-3.48 0l-8 14A2 2 0 0 0 4 21h16a2 2 0 0 0 1.73-3"/>
    <path d="M12 9v4"/>
    <path d="M12 17h.01"/>
  </symbol>

  <symbol id="i-external-link" viewBox="0 0 24 24">
    <path d="M15 3h6v6"/>
    <path d="M10 14 21 3"/>
    <path d="M18 13v6a2 2 0 0 1-2 2H5a2 2 0 0 1-2-2V8a2 2 0 0 1 2-2h6"/>
  </symbol>
</svg>
